<?xml version="1.0" standalone="no"?>
<!DOCTYPE svg PUBLIC "-//W3C//DTD SVG 20010904//EN"
 "http://www.w3.org/TR/2001/REC-SVG-20010904/DTD/svg10.dtd">
<svg version="1.0" xmlns="http://www.w3.org/2000/svg"
 width="373.000000pt" height="373.000000pt" viewBox="0 0 373.000000 373.000000"
 preserveAspectRatio="xMidYMid meet">
<metadata>
Created by potrace 1.14, written by Peter Selinger 2001-2017
</metadata>
<g transform="translate(0.000000,373.000000) scale(0.100000,-0.100000)"
fill="#000000" stroke="none">
<path d="M2820 3470 l0 -50 -100 0 -100 0 0 -50 0 -50 -400 0 -400 0 0 -50 0
-50 -100 0 -100 0 0 -50 0 -50 -50 0 -50 0 0 -50 0 -50 -50 0 -50 0 0 -50 0
-50 -250 0 -250 0 0 -50 0 -50 -50 0 -50 0 0 50 0 50 -100 0 -100 0 0 50 0 50
-100 0 -100 0 0 -50 0 -50 -50 0 -50 0 0 -300 0 -300 -50 0 -50 0 0 -150 0
-150 -50 0 -50 0 0 -250 0 -250 50 0 50 0 0 -50 0 -50 50 0 50 0 0 -50 0 -50
50 0 50 0 0 -50 0 -50 100 0 100 0 0 -150 0 -150 50 0 50 0 0 -150 0 -150 50
0 50 0 0 -50 0 -50 -50 0 -50 0 0 -50 0 -50 50 0 50 0 0 -50 0 -50 250 0 250
0 0 50 0 50 50 0 50 0 0 50 0 50 50 0 50 0 0 100 0 100 100 0 100 0 0 -150 0
-150 -50 0 -50 0 0 -50 0 -50 50 0 50 0 0 -50 0 -50 250 0 250 0 0 50 0 50 50
0 50 0 0 50 0 50 50 0 50 0 0 100 0 100 50 0 50 0 0 50 0 50 50 0 50 0 0 -100
0 -100 50 0 50 0 0 -50 0 -50 250 0 250 0 0 50 0 50 50 0 50 0 0 50 0 50 50 0
50 0 0 100 0 100 50 0 50 0 0 200 0 200 -50 0 -50 0 0 100 0 100 -50 0 -50 0
0 100 0 100 50 0 50 0 0 50 0 50 50 0 50 0 0 100 0 100 50 0 50 0 0 250 0 250
-50 0 -50 0 0 100 0 100 -50 0 -50 0 0 100 0 100 -50 0 -50 0 0 50 0 50 -50 0
-50 0 0 200 0 200 -50 0 -50 0 0 50 0 50 -100 0 -100 0 0 50 0 50 -50 0 -50 0
0 -50z"/>
</g>
</svg>
